<?xml version="1.0" standalone="no"?>
<!DOCTYPE svg PUBLIC "-//W3C//DTD SVG 20010904//EN"
 "http://www.w3.org/TR/2001/REC-SVG-20010904/DTD/svg10.dtd">
<svg version="1.0" xmlns="http://www.w3.org/2000/svg"
 width="1200.000000pt" height="830.000000pt" viewBox="0 0 1200.000000 830.000000"
 preserveAspectRatio="xMidYMid meet">

<g transform="translate(0.000000,830.000000) scale(0.100000,-0.100000)"
fill="#000000" stroke="none">
<path d="M4975 8260 c-965 -15 -1864 -53 -2490 -105 -540 -46 -1025 -113
-1185 -166 -492 -160 -868 -574 -980 -1078 -100 -451 -175 -1165 -211 -2001
-14 -331 -14 -1253 0 -1580 34 -785 106 -1445 206 -1896 73 -326 193 -553 410
-769 128 -128 248 -213 408 -290 189 -91 368 -131 807 -179 635 -71 1374 -112
2630 -148 562 -16 2570 -16 3115 0 1462 43 2364 113 2856 222 262 58 503 194
704 395 165 164 286 357 355 563 84 252 187 967 234 1622 36 500 41 653 41
1355 -1 743 -9 963 -55 1480 -56 623 -158 1214 -251 1449 -122 308 -340 563
-629 736 -299 178 -669 245 -1710 310 -1051 65 -2925 101 -4255 80z m1419
-3230 c839 -481 1526 -877 1526 -880 0 -6 -3047 -1754 -3066 -1758 -12 -3 -14
259 -14 1758 0 1499 2 1761 14 1758 8 -2 701 -397 1540 -878z"/>
</g>
</svg>
